<svg width="219" height="147" viewBox="0 0 219 147" fill="none" xmlns="http://www.w3.org/2000/svg">
<g clip-path="url(#clip0_412_545871)">
<path d="M213.613 13.0703C211.28 10.684 208.245 9.51028 204.601 9.58364L161.452 9.13486C161.413 9.13054 161.379 9.12191 161.348 9.1176C161.266 8.94931 161.157 8.68176 161.075 8.47463C160.588 7.27933 159.854 5.46695 157.817 3.51217C153.604 -0.531159 149.726 0.487225 147.793 1.44951C144.684 3.00298 142.643 6.38177 142.599 10.0583L142.417 24.9284C142.391 25.662 142.321 31.1811 145.722 35.4316H145.487C144.293 35.4316 141.392 35.9408 140.241 40.64C139.789 42.4912 139.772 44.2605 139.772 44.459V51.1346C139.772 51.1346 139.772 51.1475 139.772 51.1518H52.5588V45.4903C52.5588 43.0695 51.5816 41.6066 50.7608 40.8083C49.0843 39.1729 46.9432 39.1168 46.3265 39.1383H43.4601L19.4777 38.9528C18.7915 38.8018 17.4755 38.258 17.0847 34.9008V31.6644C17.0847 26.9911 13.9316 23.0125 9.58853 22.2099C8.03372 21.9208 6.53102 22.0804 5.11518 22.6802C2.08372 23.9575 0.125 27.0472 0.125 30.5425V62.449C0.125 65.4221 1.3758 68.2141 3.56036 70.1041C5.21507 71.5368 7.0435 72.4947 8.94576 72.9392V84.2709C8.94576 89.3369 12.7937 93.4579 17.5233 93.4579H24.6416C27.2865 93.4579 29.6491 92.1677 31.2257 90.1482C33.1757 92.1936 35.8423 93.4579 38.7739 93.4579H41.4015C47.3688 93.4579 52.2244 88.2409 52.2244 81.8242V78.1519L154.256 78.0656V81.0302C154.256 86.135 158.695 90.2862 164.154 90.2862H166.486C169.544 90.2862 172.284 88.9831 174.099 86.9377C175.915 88.9831 178.655 90.2862 181.713 90.2862H184.045C186.885 90.2862 189.443 89.16 191.25 87.3649C193.057 89.16 195.619 90.2862 198.455 90.2862H200.787C206.247 90.2862 210.685 86.135 210.685 81.0302V77.2371C210.685 76.9868 210.659 76.7452 210.62 76.5079C211.862 75.8994 213.143 75.045 214.29 73.8454C216.887 71.1311 218.173 67.3942 218.116 62.7424C217.938 48.2952 218.116 25.8778 218.116 25.662C218.116 25.3384 218.155 17.7134 213.6 13.0574L213.613 13.0703ZM46.3873 44.5841H46.5436C46.5436 44.5841 47.004 44.6273 47.156 44.774C47.2081 44.8258 47.2993 45.0372 47.2993 45.4946V56.5976H47.3124V61.8535C47.3124 63.8428 45.206 65.228 43.3167 65.228H36.5416C34.7175 65.228 33.2322 63.545 33.2322 61.4824V44.5064L43.4557 44.5841H46.396H46.3873ZM6.94795 65.9443C5.96208 65.0899 5.39748 63.8212 5.39748 62.4576V30.5511C5.39748 29.2911 6.08802 28.1562 7.11299 27.7247C7.59941 27.5219 8.10755 27.4701 8.6678 27.5736C10.4658 27.9059 11.8252 29.6665 11.8252 31.6688V35.0605L11.8426 35.3582C12.5722 42.2496 16.507 43.9541 18.7871 44.3597L18.9999 44.3986L27.9597 44.4676V53.3785H20.2898C15.9641 53.3785 12.759 54.6946 10.7742 57.2923C8.27258 60.5633 8.72426 64.5807 8.9501 65.8494V67.2518C8.26824 66.9454 7.59941 66.5139 6.95229 65.9529L6.94795 65.9443ZM46.9649 78.1822V81.8371C46.9649 85.2504 44.472 88.0294 41.4101 88.0294H38.7826C35.7381 88.0294 33.2626 85.285 33.2278 81.9018V78.1865H46.9649V78.1822ZM171.129 81.0431C171.129 83.1489 169.053 84.8621 166.499 84.8621H164.167C161.613 84.8621 159.537 83.1489 159.537 81.0431V78.1822H171.133V81.0431H171.129ZM184.054 84.8621H181.721C179.168 84.8621 177.092 83.1489 177.092 81.0431V78.1822H188.57V81.0431C188.57 81.2848 188.583 81.5221 188.605 81.7594C188.197 83.52 186.316 84.8577 184.058 84.8577L184.054 84.8621ZM205.435 81.0431C205.435 83.1489 203.359 84.8621 200.805 84.8621H198.473C196.219 84.8621 194.334 83.5244 193.925 81.7638C193.943 81.5264 193.96 81.2891 193.96 81.0474V78.1865H205.439V81.0474L205.435 81.0431ZM208.983 71.2822C206.868 72.5465 204.618 72.594 204.609 72.594L34.1355 72.7407H32.8326V72.7537C30.205 72.8831 28.09 75.1184 27.964 77.906H27.951V84.2795C27.951 86.3465 26.4657 88.0251 24.6416 88.0251H17.5233C15.6992 88.0251 14.2139 86.3422 14.2139 84.2795V65.2495L14.1444 64.9389C14.1401 64.913 13.6232 62.3368 14.9044 60.6582C15.8425 59.4327 17.6536 58.8156 20.2855 58.8156H27.9553V61.4824C27.9553 66.5484 31.8033 70.6694 36.5329 70.6694H43.3081C47.7814 70.6694 52.5718 67.1266 52.5718 61.8535V56.5976H139.889C142.729 56.5976 145.036 54.1509 145.036 51.1389V44.4719C145.044 43.1169 145.374 41.4556 145.735 40.8774H156.467V51.579C156.445 52.3558 156.423 58.1683 160.123 62.1599C162.386 64.6023 165.47 65.8407 169.292 65.8407C170.747 65.8407 171.923 64.6238 171.923 63.1222C171.923 61.6205 170.742 60.4036 169.292 60.4036C166.942 60.4036 165.196 59.7563 163.95 58.4229C161.617 55.9287 161.73 51.7732 161.73 51.743V39.5181H173.357C172.931 40.5753 172.697 41.7361 172.697 42.9573V46.9402C172.697 51.8379 176.484 55.8209 181.139 55.8209H198.056C202.711 55.8209 206.499 51.8379 206.499 46.9402V40.817C206.499 38.2494 205.4 36.2342 203.402 35.1339C202.221 34.4823 200.87 34.232 199.619 34.137V34.0809H152.571C147.472 31.8241 147.667 25.4161 147.676 25.1528L147.859 10.136C147.88 8.50484 148.749 7.02473 150.078 6.36019C150.981 5.9071 152.267 5.63093 154.226 7.50803C155.433 8.6645 155.811 9.59658 156.21 10.5848C156.801 12.0347 157.687 14.2268 161.022 14.5677L204.622 15.0294H204.666C206.872 14.9819 208.583 15.599 209.886 16.9238C212.853 19.9358 212.857 25.5628 212.857 25.6232C212.857 25.8476 212.679 48.3211 212.857 62.8287C212.909 66.9282 211.641 69.6942 208.979 71.2865L208.983 71.2822ZM201.235 40.8126V46.9359C201.235 48.8303 199.81 50.3751 198.06 50.3751H181.144C179.394 50.3751 177.969 48.8346 177.969 46.9359V42.953C177.969 41.0586 179.394 39.5138 181.144 39.5138H198.06C201.235 39.5138 201.235 40.0877 201.235 40.8126Z" fill="#AD8049"/>
<path d="M39.4684 135.936C39.6768 136.842 39.5856 137.939 39.4901 139.091L39.4814 139.199C39.451 139.496 39.4293 139.777 39.4032 140.062C39.286 141.451 39.1557 143.03 38.3131 144.342C37.2187 146.094 35.1861 146.055 33.7051 146.034H33.349C31.6552 145.999 28.8756 145.96 26.8301 145.956C24.272 145.943 21.9094 145.96 19.1646 146.004C18.4957 145.973 17.9746 146.004 17.4664 146.034C17.145 146.051 16.8323 146.068 16.5153 146.068C15.7075 146.068 14.8997 145.952 14.0007 145.43L13.8139 145.287C12.3981 143.889 13.5359 142.228 14.2178 141.24C14.4784 140.856 14.752 140.459 14.8389 140.187C15.1472 139.41 15.1603 138.724 15.182 137.684C15.1907 137.36 15.195 137.002 15.2124 136.618C15.3079 130.257 15.3166 124.622 15.2254 119.888C15.1863 119.085 15.0604 118.438 14.8258 117.873C14.6782 117.446 14.4263 117.044 14.1527 116.622C13.6662 115.858 13.1147 114.99 13.1407 113.959L13.1798 113.704L13.2363 113.54C14.0528 111.663 16.6803 111.754 18.5956 111.823C19.1602 111.845 19.6901 111.862 20.0462 111.827L20.3285 111.819C22.9387 111.745 25.3491 111.801 26.0874 113.269C26.4913 114.076 26.2524 115.038 25.3795 116.13L25.0581 116.544C24.6194 117.101 24.2069 117.627 23.9463 118.192C23.5684 118.986 23.5293 119.858 23.512 121.001C23.4598 124.359 23.4598 128.096 23.4642 131.712V135.349C23.4729 135.733 23.4685 136.152 23.4642 136.571C23.4468 138.038 23.4338 139.557 24.1547 139.928C25.5793 140.743 27.4207 140.601 29.2014 140.459L29.2969 140.45C32.298 140.217 33.8354 139.06 35.1644 136.036C35.286 135.725 35.868 134.97 35.8723 134.965C36.7149 133.891 37.6182 133.982 37.9657 134.068C38.7301 134.258 39.3033 134.974 39.4684 135.936Z" fill="#621132"/>
<path d="M53.0318 141.507C53.7266 142.427 54.7777 143.816 53.8439 145.132L53.6572 145.326C52.6279 146.129 51.3988 146.28 50.2088 146.28C49.844 146.28 49.4878 146.267 49.1404 146.254C48.5931 146.232 48.0763 146.215 47.6116 146.245L47.3771 146.254C44.8103 146.323 42.4434 146.263 41.6964 144.8C41.2838 143.993 41.5096 143.026 42.3652 141.922L42.4564 141.784C42.9602 141.067 43.4336 140.394 43.6117 139.678C43.7724 138.936 43.755 137.732 43.7376 136.562C43.7289 135.932 43.7202 135.302 43.7376 134.72V127.759C43.7376 123.772 43.7376 119.841 43.7376 117.735C43.7376 116.889 43.173 116.246 42.6258 115.625C42.0482 114.969 41.3924 114.222 41.6312 113.252C41.8527 112.328 42.7952 111.62 44.8755 110.792C47.6724 109.627 49.6833 109.1 51.0166 110.093C52.0937 110.891 52.4411 112.44 52.1414 115.111C52.0806 116.604 52.0459 118.469 52.0459 120.29V138.211C52.0459 139.052 52.0502 139.717 52.3499 140.398L52.3933 140.528C52.4498 140.735 52.7712 141.158 53.0274 141.499L53.0318 141.507Z" fill="#621132"/>
<path d="M79.3434 129.623C79.3434 130.568 79.3173 131.569 79.2826 132.566V144.226C79.2826 144.506 79.2044 144.787 79.0567 145.054C78.7484 145.615 78.1577 145.969 77.528 145.969H73.541C72.5725 145.969 71.7865 145.188 71.7865 144.226V143.665C69.9493 145.097 67.4304 145.961 64.9939 145.961C60.1514 145.961 56.8984 143.225 56.8984 139.147C56.8984 135.069 59.5911 132.337 64.4858 130.883C66.2317 130.387 68.0992 130.128 69.5975 129.921C70.3402 129.817 71.2523 129.692 71.5867 129.593C71.6258 129.481 71.7126 129.144 71.7126 128.303C71.7126 127.017 71.4433 124.76 69.6714 124.005C69.0633 123.802 68.4162 123.711 67.8039 123.755C66.1014 123.88 64.894 124.868 64.4554 126.469L64.4032 126.641C63.8213 128.562 63.274 129.088 60.7768 128.881C60.0385 128.821 59.5043 128.57 59.1438 128.113C58.5531 127.371 58.5792 126.292 58.8268 124.691C59.0743 123.068 60.2513 121.584 62.1362 120.514C63.8386 119.547 65.9233 119.042 67.856 119.073C69.2371 119.06 70.527 119.228 71.7517 119.582H71.7604C71.7604 119.582 71.7734 119.582 71.7778 119.586C71.7865 119.586 71.7951 119.59 71.8038 119.595C74.3141 120.203 76.3163 121.537 77.6105 123.448L77.8841 123.78V123.914C78.8396 125.524 79.339 127.431 79.339 129.623H79.3434ZM67.1785 140.316C69.9016 140.316 71.7343 138.267 71.7343 135.22C71.7343 134.788 71.7213 134.504 71.7039 134.314C70.0275 134.344 68.7072 134.525 67.5824 134.879C65.6888 135.5 64.5987 136.696 64.5987 138.15C64.5987 140.157 66.5748 140.316 67.1828 140.316H67.1785Z" fill="#621132"/>
<path d="M106.867 120.583C107.944 120.812 108.682 121.761 108.582 122.788C108.504 123.621 108.026 124.156 107.566 124.674C107.362 124.907 107.123 125.17 106.884 125.507C106.446 126.089 106.02 126.853 105.703 127.621C104.704 129.994 102.863 135 101.764 137.995L101.303 139.242C101.086 139.742 100.904 140.217 100.721 140.7C99.9745 142.659 99.1276 144.882 97.0125 145.965C96.1439 146.379 95.3752 146.586 94.6846 146.586C94.259 146.586 93.8594 146.509 93.4859 146.349C92.4653 145.917 91.74 144.964 91.2015 143.341C90.8367 142.47 90.233 140.994 89.5381 139.285C88.1049 135.764 86.3199 131.384 85.1342 128.661C84.5479 127.401 84.0658 126.426 83.3362 125.563C82.081 124.363 81.5208 123.271 81.6728 122.309C81.7466 121.843 82.0246 121.2 82.9323 120.773C83.7531 120.436 84.5783 120.466 85.3079 120.497L85.499 120.505C86.8367 120.587 88.1179 120.544 89.4816 120.505L90.4805 120.475C91.2753 120.389 92.5348 120.579 93.2123 121.433C93.6466 121.981 93.7378 122.684 93.4729 123.409C93.3339 123.802 93.1168 124.16 92.9257 124.479C92.7519 124.769 92.5912 125.04 92.5131 125.286C92.3524 125.804 92.461 126.141 92.6564 126.745C92.7215 126.943 92.7867 127.151 92.8475 127.375C93.4946 129.274 94.1938 131.03 94.9365 132.894L95.5489 134.439C95.6661 134.668 95.8485 135.134 96.057 135.677C96.1916 136.023 96.4001 136.558 96.6042 137.037C97.6509 134.745 98.5022 131.876 99.2665 129.3C99.4489 128.687 99.627 128.087 99.8051 127.509C100.153 126.352 100.1 125.606 99.6183 124.933C99.5054 124.756 99.3968 124.622 99.2926 124.484C98.8496 123.914 98.1764 123.047 98.563 121.938C99.1362 120.402 100.943 120.462 101.716 120.492C102.598 120.57 103.388 120.548 104.226 120.522C104.999 120.501 105.799 120.479 106.624 120.54L106.867 120.583Z" fill="#621132"/>
<path d="M131.975 135.25C132.34 135.25 133.534 135.406 133.534 137.416C133.534 140.989 129.547 146.163 122.337 146.163C115.128 146.163 109.777 140.985 109.777 133.283C109.777 125.58 115.432 119.332 122.932 119.332C129.638 119.332 133.147 124.126 133.147 128.864C133.147 130.521 132.413 131.742 130.902 132.596C127.58 134.594 120.266 135.043 118.142 135.129C118.394 136.834 119.979 139.695 123.983 139.695C126.776 139.695 128.896 138.556 130.29 136.312L130.35 136.225C130.702 135.781 131.267 135.25 131.97 135.25H131.975ZM125.851 128.005C125.851 125.869 124.361 124.255 122.39 124.255C119.462 124.255 117.491 127.336 117.491 130.214C117.491 130.327 117.499 130.413 117.508 130.469C119.506 130.439 123.953 129.779 125.443 128.756C125.747 128.544 125.851 128.355 125.851 128.001V128.005Z" fill="#621132"/>
<path d="M182.534 142.435C182.808 143.363 182.534 143.98 182.252 144.334C181.618 145.137 180.415 145.279 179.398 145.279C179.077 145.279 178.773 145.266 178.512 145.253C177.11 145.197 176.024 145.18 174.66 145.24H174.36C173.188 145.262 171.416 145.301 170.621 144.269C170.365 143.933 170.109 143.359 170.356 142.513C170.521 141.956 170.782 141.59 171.06 141.206C171.199 141.011 171.359 140.787 171.546 140.489C172.237 139.367 172.345 138.008 172.315 137.063C172.284 136.42 172.258 135.501 172.228 134.422C172.158 131.85 172.059 128.238 171.776 125.149C171.65 125.438 171.511 125.761 171.355 126.133C170.417 128.385 169.67 130.305 168.636 132.985L168.61 133.054C168.219 134.06 167.798 135.177 167.368 136.312C166.517 138.56 165.635 140.886 164.914 142.586C164.35 144.114 162.973 145.223 161.587 145.245C160.441 145.258 159.485 144.546 158.96 143.268C158.382 141.987 157.227 139.13 155.885 135.829C154.352 132.053 152.658 127.876 151.368 124.894C151.29 126.478 151.242 128.402 151.199 130.288C151.164 131.725 151.129 133.153 151.082 134.422C151.038 135.993 151.025 137.667 151.342 139.285C151.499 140.2 151.746 140.757 152.176 141.167C152.489 141.434 153.618 142.509 153.405 143.695C153.344 144.036 153.119 144.658 152.259 144.986L152.128 145.024C150.951 145.288 149.483 145.266 148.063 145.245C147.69 145.24 147.329 145.232 146.982 145.236L146.556 145.245C145.279 145.27 143.694 145.305 142.999 144.239C142.621 143.657 142.63 142.936 143.03 142.099C143.238 141.659 143.538 141.335 143.829 141.02C144.042 140.791 144.259 140.554 144.458 140.256C144.845 139.721 144.88 139.039 144.919 138.245C144.927 138.051 144.941 137.857 144.954 137.663C145.405 132.89 145.744 124.929 145.774 120.48C145.766 120.212 145.766 119.919 145.766 119.625C145.766 118.141 145.757 116.859 145.04 115.763C144.823 115.418 144.563 115.15 144.311 114.892C143.924 114.495 143.52 114.08 143.325 113.476C143.116 112.963 143.169 112.32 143.49 111.785C143.859 111.172 144.515 110.753 145.253 110.667C145.848 110.555 146.439 110.585 147.012 110.607C147.186 110.615 147.36 110.624 147.538 110.628C147.989 110.645 148.402 110.654 148.81 110.667C149.423 110.68 150.031 110.693 150.66 110.736H150.686C153.653 110.736 155.042 112.781 155.92 114.559C157.383 117.761 159.581 122.978 161.349 127.173C162.087 128.92 162.743 130.478 163.229 131.617C163.464 131.03 163.75 130.292 164.085 129.442C165.726 125.257 168.471 118.253 170.274 114.283C170.964 112.863 171.989 111.215 173.909 110.917C174.847 110.732 175.976 110.697 177.066 110.667C177.409 110.658 177.748 110.65 178.069 110.632C179.29 110.516 180.958 110.585 181.731 111.59C182.039 111.992 182.321 112.691 181.917 113.739C181.692 114.236 181.388 114.581 181.092 114.913C180.871 115.159 180.645 115.414 180.449 115.72C179.598 116.959 179.589 118.512 179.581 120.156V120.67C179.611 125.878 180.124 134.31 180.545 138.081C180.619 138.867 180.758 139.734 181.201 140.334C181.379 140.58 181.526 140.774 181.661 140.942C182.03 141.413 182.343 141.818 182.53 142.444L182.534 142.435Z" fill="#621132"/>
<path d="M215.97 140.096C216.969 140.8 218.102 141.598 218.072 142.88C218.106 143.428 217.907 143.98 217.494 144.399C216.751 145.149 215.54 145.275 214.649 145.231C214.245 145.227 213.729 145.21 213.155 145.188C211.787 145.145 210.085 145.089 208.63 145.145C208.183 145.136 207.796 145.162 207.383 145.193C206.371 145.266 205.225 145.348 204.135 144.739L203.952 144.606C202.45 143.208 203.666 141.779 204.252 141.093C204.491 140.813 204.895 140.342 204.864 140.165C204.778 139.691 204.083 138.137 200.456 133.386C200.343 133.235 200.252 133.132 200.183 133.058C200.083 133.179 199.97 133.339 199.896 133.447C199.757 133.645 199.618 133.839 199.47 133.999C199.04 134.56 198.567 135.186 198.085 135.837C197.733 136.351 197.377 136.843 197.051 137.291C196.122 138.577 195.384 139.591 195.509 140.178C195.57 140.437 195.857 140.735 196.161 141.05C196.452 141.352 196.782 141.697 197.004 142.12C197.494 143.117 197.19 143.825 196.973 144.157C196.408 145.007 195.232 145.266 194.328 145.223C193.872 145.218 193.286 145.197 192.673 145.175C191.939 145.149 191.175 145.119 190.528 145.119C190.063 145.076 189.573 145.119 189.051 145.167C188.613 145.205 188.157 145.244 187.696 145.244C186.958 145.244 186.22 145.145 185.564 144.774L185.416 144.692L185.308 144.563C184.804 143.963 184.591 143.346 184.674 142.733C184.817 141.65 185.816 140.951 186.78 140.273C187.258 139.937 187.753 139.591 188.135 139.212C189.777 137.727 190.936 136.178 192.548 134.033C192.878 133.593 193.225 133.127 193.599 132.635C193.82 132.316 194.137 131.889 194.476 131.431C195.262 130.37 196.343 128.916 196.552 128.277C196.574 128.173 196.578 128.143 196.23 127.638C196.122 127.479 196 127.306 195.874 127.099C195.557 126.65 195.214 126.167 194.884 125.705L194.437 125.079C194.146 124.695 193.742 124.143 193.277 123.5C191.714 121.351 189.351 118.097 187.692 116.471C187.449 116.251 187.175 116.039 186.923 115.845C186.376 115.426 185.864 115.029 185.555 114.46C185.195 113.843 185.16 113.062 185.473 112.397C185.785 111.728 186.398 111.271 187.145 111.137C188.613 110.956 190.237 111.008 191.809 111.055C193.242 111.098 194.728 111.141 195.996 111.012C197.242 110.861 198.936 111.077 199.575 112.207C199.883 112.751 200.039 113.657 199.058 114.883C198.458 115.504 198.211 115.897 198.254 116.117C198.467 117.088 200.469 120.259 202.454 122.762C204.052 120.777 206.215 117.545 206.649 116.307C206.754 116.022 206.554 115.711 206.033 115.073C205.79 114.775 205.538 114.464 205.347 114.115C204.86 113.092 205.168 112.393 205.394 112.061C205.972 111.202 207.145 110.96 208.061 110.995C209.911 111.098 212.113 111.103 214.619 111.003C215.54 110.947 216.391 111.379 216.821 112.117C217.242 112.842 217.203 113.713 216.721 114.455C216.135 115.228 215.392 115.789 214.675 116.328C214.054 116.794 213.468 117.234 213.06 117.739C212.104 118.814 209.907 121.765 208.308 123.975C208.065 124.35 207.757 124.756 207.449 125.161C206.897 125.882 206.376 126.568 206.12 127.276C206.35 127.828 207.266 129.33 207.887 130.154L208.039 130.366C209.911 132.985 212.738 136.942 214.723 139.074L214.797 139.143C215.097 139.458 215.548 139.773 215.983 140.079L215.97 140.096Z" fill="#621132"/>
</g>
<defs>
<clipPath id="clip0_412_545871">
<rect width="218" height="146" fill="white" transform="translate(0.128906 0.586426)"/>
</clipPath>
</defs>
</svg>
